<?xml version="1.0" encoding="utf-8"?>
<!-- Generator: Adobe Illustrator 26.0.1, SVG Export Plug-In . SVG Version: 6.00 Build 0)  -->
<svg version="1.1" id="Layer_1" xmlns="http://www.w3.org/2000/svg" xmlns:xlink="http://www.w3.org/1999/xlink" x="0px" y="0px"
	 viewBox="0 0 360 360" style="enable-background:new 0 0 360 360;" xml:space="preserve">
<style type="text/css">
	.st0{fill:#F6C418;}
	.st1{fill:#FED800;}
	.st2{fill:#8E5A00;}
</style>
<g>
	<g>
		<path class="st0" d="M207,71.6c0,17.9,0,35.8-21,68.9c-2.6,4.1-9.4,4.1-11.9,0c-21-33.1-21-51.1-21-68.9S162.1,0,180.1,0
			C198.1,0,207,53.7,207,71.6z"/>
		<path class="st0" d="M122.5,84.2c12.6,12.6,25.3,25.3,33.9,63.6c1,4.7-3.7,9.5-8.4,8.4c-38.3-8.6-50.9-21.3-63.6-33.9
			c-12.6-12.6-44.3-57-31.6-69.7S109.8,71.6,122.5,84.2z"/>
		<path class="st0" d="M71.6,153c17.9,0,35.8,0,68.9,21c4.1,2.6,4.1,9.4,0,11.9c-33.1,21-51.1,21-68.9,21S0,197.9,0,179.9
			C0,161.9,53.7,153,71.6,153z"/>
		<path class="st0" d="M84.2,237.5c12.6-12.6,25.3-25.3,63.6-33.9c4.7-1,9.5,3.7,8.4,8.4c-8.6,38.3-21.3,50.9-33.9,63.6
			c-12.6,12.6-57,44.3-69.7,31.6S71.6,250.2,84.2,237.5z"/>
		<path class="st0" d="M153,288.4c0-17.9,0-35.8,21-68.9c2.6-4.1,9.4-4,11.9,0c21,33.1,21,51,21,69c0,17.9-9,71.6-26.9,71.6
			C161.9,360,153,306.3,153,288.4z"/>
		<path class="st0" d="M237.5,275.8c-12.6-12.6-25.3-25.3-33.9-63.6c-1-4.7,3.7-9.5,8.4-8.4c38.3,8.6,50.9,21.3,63.6,33.9
			c12.6,12.6,44.3,57,31.6,69.7S250.2,288.4,237.5,275.8z"/>
		<path class="st0" d="M288.4,207c-17.9,0-35.8,0-68.9-21c-4.1-2.6-4-9.4,0-11.9c33.1-21,51-21,69-21c17.9,0,71.6,9,71.6,26.9
			C360,198.1,306.3,207,288.4,207z"/>
		<path class="st0" d="M275.8,122.5c-12.6,12.6-25.3,25.3-63.6,33.9c-4.7,1-9.5-3.7-8.4-8.4c8.6-38.3,21.3-50.9,33.9-63.6
			c12.6-12.6,57-44.3,69.7-31.6S288.4,109.8,275.8,122.5z"/>
		<g>
			<path class="st1" d="M163.5,69.5c6.9,16.5,13.7,33.1,7,71.7c-0.8,4.7-7.1,7.3-11,4.6c-32.1-22.6-38.9-39.1-45.8-55.7
				c-6.9-16.5-19.1-69.6-2.5-76.4C127.8,6.8,156.6,53,163.5,69.5z"/>
			<path class="st1" d="M90.2,113.5c16.5,6.9,33.1,13.7,55.7,45.8c2.8,3.9,0.2,10.2-4.6,11c-38.7,6.7-55.2-0.2-71.7-7
				S6.9,127.6,13.7,111C20.6,94.4,73.6,106.7,90.2,113.5z"/>
			<path class="st1" d="M69.5,196.5c16.5-6.9,33.1-13.7,71.7-7c4.7,0.8,7.3,7.1,4.6,11c-22.6,32.1-39.1,38.9-55.7,45.8
				s-69.6,19.1-76.4,2.5C6.8,232.2,53,203.4,69.5,196.5z"/>
			<path class="st1" d="M113.5,269.8c6.9-16.5,13.7-33.1,45.8-55.7c3.9-2.8,10.2-0.2,11,4.6c6.7,38.7-0.2,55.2-7,71.7
				s-35.7,62.7-52.3,55.8C94.4,339.4,106.7,286.4,113.5,269.8z"/>
			<path class="st1" d="M196.5,290.5c-6.9-16.5-13.7-33.1-7-71.7c0.8-4.7,7.1-7.3,11-4.5c32.1,22.6,38.9,39.1,45.8,55.7
				c6.9,16.5,19.1,69.6,2.5,76.5C232.2,353.2,203.4,307,196.5,290.5z"/>
			<path class="st1" d="M269.8,246.5c-16.5-6.9-33.1-13.7-55.7-45.8c-2.8-3.9-0.2-10.2,4.6-11c38.7-6.7,55.2,0.2,71.7,7
				s62.7,35.7,55.8,52.3C339.4,265.6,286.4,253.3,269.8,246.5z"/>
			<path class="st1" d="M290.5,163.5c-16.5,6.9-33.1,13.7-71.7,7c-4.7-0.8-7.3-7.1-4.5-11c22.6-32.1,39.1-38.9,55.7-45.8
				c16.5-6.9,69.6-19.1,76.5-2.5C353.2,127.8,307,156.6,290.5,163.5z"/>
			<path class="st1" d="M246.5,90.2c-6.9,16.5-13.7,33.1-45.8,55.7c-3.9,2.8-10.2,0.2-11-4.6c-6.7-38.7,0.2-55.2,7-71.7
				S232.4,6.9,249,13.7C265.6,20.6,253.3,73.6,246.5,90.2z"/>
		</g>
	</g>
	<circle class="st2" cx="180" cy="180" r="70"/>
</g>
</svg>
