<?xml version="1.0" encoding="utf-8"?>
<!-- Generator: Adobe Illustrator 26.0.1, SVG Export Plug-In . SVG Version: 6.00 Build 0)  -->
<svg version="1.1"
	 id="Layer_1" xmlns:cc="http://creativecommons.org/ns#" xmlns:dc="http://purl.org/dc/elements/1.1/" xmlns:rdf="http://www.w3.org/1999/02/22-rdf-syntax-ns#"
	 xmlns="http://www.w3.org/2000/svg" xmlns:xlink="http://www.w3.org/1999/xlink" x="0px" y="0px" viewBox="0 0 24 24"
	 style="enable-background:new 0 0 24 24;" xml:space="preserve">
<style type="text/css">
	.st0{fill:#ECF0F1;}
	.st1{fill:#F39C12;}
	.st2{fill:#F1C40F;}
	.st3{fill:#E67E22;}
	.st4{fill:#2C3E50;}
	.st5{fill:#C0392B;}
</style>
<g transform="translate(0 -1028.4)">
	<path class="st0" d="M5,1038.4c0,1.6,1.3,3,3,3s3-1.4,3-3H5z"/>
	<g>
		<path class="st1" d="M23,1030.3l-9,3l6.6,7.5L23,1030.3z"/>
		<path class="st1" d="M1,1030.3l9,3l-6.6,7.5L1,1030.3z"/>
		<path class="st1" d="M22,1041.4c0,5-4.5,9-10,9s-10-4-10-9s4.5-9,10-9S22,1036.4,22,1041.4z"/>
	</g>
	<g>
		<path class="st2" d="M21,1041.4c0,4.4-4,8-9,8s-9-3.6-9-8c0-4.4,4-8,9-8S21,1036.9,21,1041.4z"/>
		<path class="st2" d="M3,1032.3l9,3l-6.6,7.5L3,1032.3z"/>
		<path class="st2" d="M21,1032.3l-9,3l6.6,7.5L21,1032.3z"/>
	</g>
	<g>
		<path class="st3" d="M11,1042.4v2c0,1.1-0.9,2-2,2c-1.1,0-2-0.9-2-2H6c0,1.6,1.3,3,3,3c1.7,0,3-1.4,3-3v-2H11z"/>
		<path class="st3" d="M13,1042.4v2c0,1.1,0.9,2,2,2s2-0.9,2-2h1c0,1.6-1.3,3-3,3s-3-1.4-3-3v-2H13z"/>
		<path class="st3" d="M0,1039.9v0.8l6,2.3l-6,0v0.7l6,0h0.1l-6.1,2.3v0.8l9-3.5L0,1039.9z"/>
		<path class="st3" d="M24,1039.9v0.8l-6,2.3h6v0.7h-6h-0.1l6.1,2.3v0.8l-9-3.4L24,1039.9L24,1039.9z"/>
	</g>
	<path class="st0" d="M8,1036.4c-1.7,0-3,1.3-3,3c0,1.6,1.3,3,3,3s3-1.4,3-3C11,1037.7,9.7,1036.4,8,1036.4z"/>
	<path class="st4" d="M8,1037.4c-1.1,0-2,0.9-2,2s0.9,2,2,2s2-0.9,2-2S9.1,1037.4,8,1037.4z"/>
	<path class="st0" d="M8,1037.4c-0.6,0-1,0.4-1,1c0,0.5,0.4,1,1,1s1-0.5,1-1C9,1037.8,8.6,1037.4,8,1037.4z"/>
	<path class="st0" d="M16,1036.4c-1.7,0-3,1.3-3,3c0,1.6,1.3,3,3,3s3-1.4,3-3C19,1037.7,17.7,1036.4,16,1036.4z"/>
	<path class="st4" d="M16,1037.4c-1.1,0-2,0.9-2,2s0.9,2,2,2s2-0.9,2-2S17.1,1037.4,16,1037.4z"/>
	<path class="st0" d="M16,1037.4c-0.6,0-1,0.4-1,1c0,0.5,0.4,1,1,1s1-0.5,1-1C17,1037.8,16.6,1037.4,16,1037.4z"/>
	<path class="st5" d="M10.2,1041.4c-0.3,0-0.5,0.2-0.5,0.5c0,0.1,0,0.2,0.1,0.3c0,0.1,0.1,0.1,0.2,0.1l1.5,1.6l0.1,0.1
		c0.1,0.1,0.2,0.2,0.4,0.2s0.3-0.1,0.4-0.2l0.1-0.1l1.5-1.6c0.1,0,0.1,0,0.2-0.1c0.1-0.1,0.1-0.2,0.1-0.3c0-0.3-0.2-0.5-0.5-0.5H12
		H10.2z"/>
</g>
</svg>
