<?xml version="1.0" encoding="utf-8"?>
<!-- Generator: Adobe Illustrator 26.0.1, SVG Export Plug-In . SVG Version: 6.00 Build 0)  -->
<svg version="1.1" id="ART" xmlns="http://www.w3.org/2000/svg" xmlns:xlink="http://www.w3.org/1999/xlink" x="0px" y="0px"
	 viewBox="0 0 150 150" style="enable-background:new 0 0 150 150;" xml:space="preserve">
<style type="text/css">
	.st0{fill:#A7B6C4;stroke:#000000;stroke-width:2;stroke-linecap:round;stroke-linejoin:round;}
	.st1{fill:#A7B6C4;stroke:#000000;stroke-width:2;stroke-miterlimit:10;}
	.st2{fill:#A7B6C4;stroke:#000000;stroke-width:3;stroke-miterlimit:10;}
	.st3{fill:#6D839B;stroke:#000000;stroke-width:4;stroke-miterlimit:10;}
	.st4{fill:#44372E;stroke:#000000;stroke-width:2;stroke-miterlimit:10;}
	.st5{fill:#FFFFFF;stroke:#000000;stroke-width:2;stroke-miterlimit:10;}
	.st6{fill:#384856;}
</style>
<path class="st0" d="M44.6,111.8c5.9-2.2,11.2,9.1,11.8,17s-29.4,5.8-36.1-0.1C35,129.4,34.3,115.7,44.6,111.8z"/>
<path class="st0" d="M114.2,111.8c-5.9-2.2-11.2,9.1-11.8,17s29.4,5.8,36.1-0.1C123.8,129.4,124.6,115.7,114.2,111.8z"/>
<path class="st1" d="M74.7,41.5C75.8,29.1,79.8,5.3,94,5.3c-11.3,4.4-11.5,32.3-6.4,36.2S74.7,41.5,74.7,41.5z"/>
<path class="st2" d="M53.8,75.3l1.6,19c-15.6,5-37.5,15.8-43,28.8c-2.7-16.8,7.3-39.7,22.1-51C24.2,56.8,22,31.9,30,16.8
	c1,14,18.3,31.3,31.5,41L53.8,75.3z"/>
<path id="_Path_" class="st3" d="M113.8,100.2c0,29.6-15.3,43.5-34.1,43.5s-34.1-13.9-34.1-43.5s15.3-63.8,34.1-63.8
	S113.8,70.6,113.8,100.2z"/>
<path class="st4" d="M89.6,95.1c-5.9-4.3-13.9-4.3-19.8,0c1.8-6,5.5-10.1,9.9-10.1S87.8,89.1,89.6,95.1z"/>
<path class="st5" d="M112,76.4c2.1,5.1,2.2,10.8-1,12.1s-6.7,1.2-8.8-3.9s-1.4-11,1.2-13S109.8,71.3,112,76.4z"/>
<path d="M109,87c-0.9,0.4-4.1,1.2-6-3.4c-1.5-3.7-0.3-6.7,1.6-8.1s4.5,0.6,5.7,3.5C111.8,82.6,111.2,86.2,109,87z"/>
<path class="st5" d="M47.4,76.4c-2.1,5.1-2.2,10.8,1,12.1s6.7,1.2,8.8-3.9s1.4-11-1.2-13S49.5,71.3,47.4,76.4z"/>
<path d="M50.3,87c0.9,0.4,4.1,1.2,6-3.4c1.5-3.7,0.3-6.7-1.6-8.1s-4.5,0.6-5.7,3.5C47.6,82.6,48.2,86.2,50.3,87z"/>
<path class="st6" d="M107.5,123.2c-5.2,11.8-14.9,18.5-27.8,18.5c-12.2,0-21.6-6.1-27-16.7c6.9-6,17.1-9.8,28.5-9.8
	C91.4,115.2,100.7,118.2,107.5,123.2z"/>
</svg>
